<svg width="458" height="439" viewBox="0 0 458 439" fill="none" xmlns="http://www.w3.org/2000/svg">
<g filter="url(#filter0_f_8_6)">
<path fill-rule="evenodd" clip-rule="evenodd" d="M181.906 109.75C207.859 95.3611 230.822 87.3968 262.896 98.2818C295.683 109.409 309.045 131.153 322.234 158.325C323.674 161.292 325.12 164.354 326.597 167.485C338.493 192.688 352.505 222.378 383.149 243.291C410.221 261.766 416.094 282.761 412.905 297.988C409.581 313.857 395.274 329.511 370.419 334.594C342.658 340.271 316.048 354.069 292.395 366.334C289.261 367.96 286.179 369.558 283.152 371.107C255.924 385.044 233.711 394.713 213.591 393.185C184.748 390.995 168.546 379.41 150.879 361.326C146.343 356.683 141.597 351.449 136.474 345.798C121.575 329.367 103.483 309.412 78.0559 290.214C49.6697 268.781 40.5648 237.383 44.161 209.939C47.8643 181.677 64.274 160.588 84.1734 155.996C116.633 148.506 142.644 132.969 164.778 119.748C170.753 116.179 176.446 112.778 181.906 109.75ZM148.714 94.9917C127.071 107.877 105.892 120.485 78.062 126.907C43.1042 134.974 20.7906 169.362 16.0046 205.886C11.1116 243.227 23.7512 285.923 61.4431 314.382C84.5232 331.808 99.8909 348.755 114.387 364.741C119.932 370.855 125.349 376.829 131.021 382.635C151.584 403.684 173.75 420.024 211.536 422.894C240.442 425.089 269.386 411.302 295.624 397.872C298.792 396.251 301.937 394.625 305.062 393.01C329.165 380.55 352.117 368.685 375.862 363.829C409.269 356.997 434.396 334.301 440.664 304.374C447.067 273.804 432.69 241.556 398.658 218.33C374.889 202.109 364.298 179.879 352.104 154.285C350.623 151.178 349.119 148.021 347.566 144.82C333.367 115.567 315.465 84.8132 271.651 69.944C229.121 55.5106 197.729 67.2798 168.616 83.4215C161.81 87.1954 155.241 91.1061 148.714 94.9917Z" fill="url(#paint0_linear_8_6)" fill-opacity="0.6"/>
</g>
<g filter="url(#filter1_f_8_6)">
<path fill-rule="evenodd" clip-rule="evenodd" d="M275.242 328.375C249.289 342.764 226.327 350.729 194.252 339.844C161.465 328.716 148.103 306.972 134.914 279.8C133.474 276.833 132.029 273.771 130.551 270.64C118.656 245.437 104.643 215.747 73.999 194.834C46.9272 176.359 41.0543 155.365 44.2435 140.138C47.5673 124.268 61.8739 108.614 86.7291 103.532C114.49 97.8545 141.1 84.0561 164.753 71.791C167.887 70.1657 170.97 68.5673 173.996 67.0183C201.224 53.0817 223.438 43.4121 243.558 44.9402C272.401 47.1307 288.602 58.7151 306.269 76.7993C310.806 81.4426 315.551 86.6766 320.674 92.3271C335.573 108.759 353.666 128.713 379.092 147.911C407.478 169.344 416.583 200.742 412.987 228.187C409.284 256.448 392.874 277.537 372.975 282.129C340.515 289.62 314.504 305.157 292.371 318.377C286.395 321.947 280.702 325.347 275.242 328.375ZM308.434 343.134C330.078 330.249 351.256 317.641 379.086 311.219C414.044 303.152 436.358 268.763 441.144 232.239C446.037 194.898 433.397 152.203 395.705 123.744C372.625 106.317 357.257 89.3701 342.761 73.3839C337.216 67.2699 331.799 61.2963 326.127 55.4902C305.564 34.4417 283.398 18.1014 245.612 15.2318C216.706 13.0365 187.762 26.8237 161.524 40.2533C158.356 41.8748 155.212 43.5002 152.087 45.1157C127.983 57.5757 105.031 69.4408 81.2863 74.2965C47.8791 81.1282 22.752 103.824 16.4838 133.751C10.081 164.321 24.4579 196.569 58.4906 219.795C82.2591 236.016 92.8504 258.246 105.045 283.841C106.525 286.948 108.029 290.104 109.583 293.306C123.782 322.558 141.683 353.312 185.497 368.181C228.027 382.615 259.419 370.846 288.532 354.704C295.339 350.93 301.908 347.019 308.434 343.134Z" fill="url(#paint1_linear_8_6)" fill-opacity="0.6"/>
</g>
<g filter="url(#filter2_i_8_6)">
<circle cx="228.574" cy="216.469" r="180.717" fill="#000126"/>
<circle cx="228.574" cy="216.469" r="180.717" fill="url(#paint2_linear_8_6)"/>
<circle cx="228.574" cy="216.469" r="180.717" fill="url(#paint3_radial_8_6)"/>
</g>
<circle cx="228.574" cy="216.469" r="179.217" stroke="url(#paint4_linear_8_6)" stroke-width="3"/>
<g filter="url(#filter3_f_8_6)">
<ellipse cx="132.03" cy="80.5191" rx="60.9811" ry="13.6082" transform="rotate(-35.5079 132.03 80.5191)" fill="url(#paint5_radial_8_6)"/>
</g>
<g filter="url(#filter4_f_8_6)">
<ellipse cx="129.044" cy="77.5162" rx="26.3986" ry="5.89096" transform="rotate(-35.5079 129.044 77.5162)" fill="white" fill-opacity="0.6"/>
</g>
<g filter="url(#filter5_d_8_6)">
<rect x="155.077" y="136.054" width="34.5869" height="67.4444" rx="17.2934" fill="url(#paint6_linear_8_6)"/>
<rect x="155.327" y="136.304" width="34.0869" height="66.9444" rx="17.0434" stroke="url(#paint7_linear_8_6)" stroke-width="0.5"/>
</g>
<g filter="url(#filter6_d_8_6)">
<rect x="264.026" y="136.054" width="34.5869" height="67.4444" rx="17.2934" fill="url(#paint8_linear_8_6)"/>
<rect x="264.276" y="136.304" width="34.0869" height="66.9444" rx="17.0434" stroke="url(#paint9_linear_8_6)" stroke-width="0.5"/>
</g>
<g filter="url(#filter7_d_8_6)">
<rect x="253.65" y="215.604" width="19.0228" height="51.8803" rx="9.5114" transform="rotate(90 253.65 215.604)" fill="url(#paint10_linear_8_6)"/>
<rect x="253.4" y="215.854" width="18.5228" height="51.3803" rx="9.2614" transform="rotate(90 253.4 215.854)" stroke="url(#paint11_linear_8_6)" stroke-width="0.5"/>
</g>
<defs>
<filter id="filter0_f_8_6" x="0" y="48.4216" width="457.148" height="389.704" filterUnits="userSpaceOnUse" color-interpolation-filters="sRGB">
<feFlood flood-opacity="0" result="BackgroundImageFix"/>
<feBlend mode="normal" in="SourceGraphic" in2="BackgroundImageFix" result="shape"/>
<feGaussianBlur stdDeviation="7.5" result="effect1_foregroundBlur_8_6"/>
</filter>
<filter id="filter1_f_8_6" x="0" y="1.52588e-05" width="457.148" height="389.704" filterUnits="userSpaceOnUse" color-interpolation-filters="sRGB">
<feFlood flood-opacity="0" result="BackgroundImageFix"/>
<feBlend mode="normal" in="SourceGraphic" in2="BackgroundImageFix" result="shape"/>
<feGaussianBlur stdDeviation="7.5" result="effect1_foregroundBlur_8_6"/>
</filter>
<filter id="filter2_i_8_6" x="47.8577" y="35.7521" width="361.433" height="361.433" filterUnits="userSpaceOnUse" color-interpolation-filters="sRGB">
<feFlood flood-opacity="0" result="BackgroundImageFix"/>
<feBlend mode="normal" in="SourceGraphic" in2="BackgroundImageFix" result="shape"/>
<feColorMatrix in="SourceAlpha" type="matrix" values="0 0 0 0 0 0 0 0 0 0 0 0 0 0 0 0 0 0 127 0" result="hardAlpha"/>
<feMorphology radius="4" operator="erode" in="SourceAlpha" result="effect1_innerShadow_8_6"/>
<feOffset/>
<feGaussianBlur stdDeviation="2"/>
<feComposite in2="hardAlpha" operator="arithmetic" k2="-1" k3="1"/>
<feColorMatrix type="matrix" values="0 0 0 0 1 0 0 0 0 1 0 0 0 0 1 0 0 0 0.25 0"/>
<feBlend mode="normal" in2="shape" result="effect1_innerShadow_8_6"/>
</filter>
<filter id="filter3_f_8_6" x="66.7571" y="28.3985" width="130.547" height="104.241" filterUnits="userSpaceOnUse" color-interpolation-filters="sRGB">
<feFlood flood-opacity="0" result="BackgroundImageFix"/>
<feBlend mode="normal" in="SourceGraphic" in2="BackgroundImageFix" result="shape"/>
<feGaussianBlur stdDeviation="7.5" result="effect1_foregroundBlur_8_6"/>
</filter>
<filter id="filter4_f_8_6" x="99.2812" y="53.4468" width="59.5264" height="48.1388" filterUnits="userSpaceOnUse" color-interpolation-filters="sRGB">
<feFlood flood-opacity="0" result="BackgroundImageFix"/>
<feBlend mode="normal" in="SourceGraphic" in2="BackgroundImageFix" result="shape"/>
<feGaussianBlur stdDeviation="4" result="effect1_foregroundBlur_8_6"/>
</filter>
<filter id="filter5_d_8_6" x="149.077" y="130.054" width="46.5869" height="79.4445" filterUnits="userSpaceOnUse" color-interpolation-filters="sRGB">
<feFlood flood-opacity="0" result="BackgroundImageFix"/>
<feColorMatrix in="SourceAlpha" type="matrix" values="0 0 0 0 0 0 0 0 0 0 0 0 0 0 0 0 0 0 127 0" result="hardAlpha"/>
<feMorphology radius="2" operator="dilate" in="SourceAlpha" result="effect1_dropShadow_8_6"/>
<feOffset/>
<feGaussianBlur stdDeviation="2"/>
<feComposite in2="hardAlpha" operator="out"/>
<feColorMatrix type="matrix" values="0 0 0 0 1 0 0 0 0 1 0 0 0 0 1 0 0 0 0.25 0"/>
<feBlend mode="normal" in2="BackgroundImageFix" result="effect1_dropShadow_8_6"/>
<feBlend mode="normal" in="SourceGraphic" in2="effect1_dropShadow_8_6" result="shape"/>
</filter>
<filter id="filter6_d_8_6" x="258.026" y="130.054" width="46.5869" height="79.4444" filterUnits="userSpaceOnUse" color-interpolation-filters="sRGB">
<feFlood flood-opacity="0" result="BackgroundImageFix"/>
<feColorMatrix in="SourceAlpha" type="matrix" values="0 0 0 0 0 0 0 0 0 0 0 0 0 0 0 0 0 0 127 0" result="hardAlpha"/>
<feMorphology radius="2" operator="dilate" in="SourceAlpha" result="effect1_dropShadow_8_6"/>
<feOffset/>
<feGaussianBlur stdDeviation="2"/>
<feComposite in2="hardAlpha" operator="out"/>
<feColorMatrix type="matrix" values="0 0 0 0 1 0 0 0 0 1 0 0 0 0 1 0 0 0 0.25 0"/>
<feBlend mode="normal" in2="BackgroundImageFix" result="effect1_dropShadow_8_6"/>
<feBlend mode="normal" in="SourceGraphic" in2="effect1_dropShadow_8_6" result="shape"/>
</filter>
<filter id="filter7_d_8_6" x="195.769" y="209.604" width="63.8804" height="31.0228" filterUnits="userSpaceOnUse" color-interpolation-filters="sRGB">
<feFlood flood-opacity="0" result="BackgroundImageFix"/>
<feColorMatrix in="SourceAlpha" type="matrix" values="0 0 0 0 0 0 0 0 0 0 0 0 0 0 0 0 0 0 127 0" result="hardAlpha"/>
<feMorphology radius="2" operator="dilate" in="SourceAlpha" result="effect1_dropShadow_8_6"/>
<feOffset/>
<feGaussianBlur stdDeviation="2"/>
<feComposite in2="hardAlpha" operator="out"/>
<feColorMatrix type="matrix" values="0 0 0 0 1 0 0 0 0 1 0 0 0 0 1 0 0 0 0.25 0"/>
<feBlend mode="normal" in2="BackgroundImageFix" result="effect1_dropShadow_8_6"/>
<feBlend mode="normal" in="SourceGraphic" in2="effect1_dropShadow_8_6" result="shape"/>
</filter>
<linearGradient id="paint0_linear_8_6" x1="228.574" y1="63.4216" x2="228.574" y2="423.125" gradientUnits="userSpaceOnUse">
<stop stop-color="white" stop-opacity="0"/>
<stop offset="0.5" stop-color="#0066FF"/>
<stop offset="1" stop-color="#CDE1FF" stop-opacity="0"/>
</linearGradient>
<linearGradient id="paint1_linear_8_6" x1="228.574" y1="374.704" x2="228.574" y2="15" gradientUnits="userSpaceOnUse">
<stop stop-color="white" stop-opacity="0"/>
<stop offset="0.5" stop-color="#FFE203"/>
<stop offset="1" stop-color="#CDE1FF" stop-opacity="0"/>
</linearGradient>
<linearGradient id="paint2_linear_8_6" x1="83.3092" y1="35.7521" x2="258.838" y2="291.695" gradientUnits="userSpaceOnUse">
<stop stop-color="white" stop-opacity="0.8"/>
<stop offset="0.13" stop-color="white" stop-opacity="0.47501"/>
<stop offset="1" stop-opacity="0"/>
</linearGradient>
<radialGradient id="paint3_radial_8_6" cx="0" cy="0" r="1" gradientUnits="userSpaceOnUse" gradientTransform="translate(47.8577 -93.9487) rotate(60.2451) scale(611.536)">
<stop offset="0.713635" stop-color="#122E4E" stop-opacity="0"/>
<stop offset="0.865" stop-color="#FDD053" stop-opacity="0.5"/>
<stop offset="1" stop-color="#122E4E" stop-opacity="0"/>
</radialGradient>
<linearGradient id="paint4_linear_8_6" x1="121.355" y1="66.0157" x2="339.252" y2="374.704" gradientUnits="userSpaceOnUse">
<stop stop-color="#FFE310"/>
<stop offset="0.51" stop-color="#0039B3"/>
<stop offset="1" stop-color="#C70000"/>
</linearGradient>
<radialGradient id="paint5_radial_8_6" cx="0" cy="0" r="1" gradientUnits="userSpaceOnUse" gradientTransform="translate(132.03 80.5191) scale(79.6012 17.7634)">
<stop stop-color="white"/>
<stop offset="1" stop-color="white" stop-opacity="0"/>
</radialGradient>
<linearGradient id="paint6_linear_8_6" x1="172.37" y1="144.928" x2="172.37" y2="199.061" gradientUnits="userSpaceOnUse">
<stop stop-color="white"/>
<stop offset="1" stop-color="#4D7194"/>
</linearGradient>
<linearGradient id="paint7_linear_8_6" x1="172.37" y1="136.054" x2="172.37" y2="203.499" gradientUnits="userSpaceOnUse">
<stop stop-color="#4B798D"/>
<stop offset="1" stop-color="#81D1F3"/>
</linearGradient>
<linearGradient id="paint8_linear_8_6" x1="281.319" y1="144.928" x2="281.319" y2="199.061" gradientUnits="userSpaceOnUse">
<stop stop-color="white"/>
<stop offset="1" stop-color="#4D7194"/>
</linearGradient>
<linearGradient id="paint9_linear_8_6" x1="281.319" y1="136.054" x2="281.319" y2="203.499" gradientUnits="userSpaceOnUse">
<stop stop-color="#4B798D"/>
<stop offset="1" stop-color="#81D1F3"/>
</linearGradient>
<linearGradient id="paint10_linear_8_6" x1="250.191" y1="243.251" x2="270.943" y2="243.251" gradientUnits="userSpaceOnUse">
<stop stop-color="white"/>
<stop offset="1" stop-color="#4D7194"/>
</linearGradient>
<linearGradient id="paint11_linear_8_6" x1="253.65" y1="241.544" x2="272.672" y2="241.544" gradientUnits="userSpaceOnUse">
<stop stop-color="#4B798D"/>
<stop offset="1" stop-color="#81D1F3"/>
</linearGradient>
</defs>
</svg>
